<?xml version="1.0" standalone="no"?>
<!DOCTYPE svg PUBLIC "-//W3C//DTD SVG 20010904//EN"
 "http://www.w3.org/TR/2001/REC-SVG-20010904/DTD/svg10.dtd">
<svg version="1.0" xmlns="http://www.w3.org/2000/svg"
 width="40.000000pt" height="40.000000pt" viewBox="0 0 40.000000 40.000000"
 preserveAspectRatio="xMidYMid meet">

<g transform="translate(0.000000,40.000000) scale(0.100000,-0.100000)"
fill="#000000" stroke="none">
<path d="M137 394 c-18 -18 -2 -24 64 -24 52 0 70 3 67 13 -5 13 -119 23 -131
11z"/>
<path d="M47 334 c-4 -4 -7 -16 -7 -26 0 -17 12 -18 161 -18 l160 0 -3 23 c-3
22 -6 22 -154 25 -82 1 -153 -1 -157 -4z"/>
<path d="M73 188 c4 -46 7 -104 7 -130 l0 -48 114 0 c101 0 115 2 120 18 2 9
8 68 11 130 l7 112 -132 0 -133 0 6 -82z m97 -48 c0 -53 -4 -90 -10 -90 -6 0
-10 37 -10 90 0 53 4 90 10 90 6 0 10 -37 10 -90z m80 0 c0 -53 -4 -90 -10
-90 -6 0 -10 37 -10 90 0 53 4 90 10 90 6 0 10 -37 10 -90z"/>
</g>
</svg>
