<?xml version="1.0" standalone="no"?>
<!DOCTYPE svg PUBLIC "-//W3C//DTD SVG 20010904//EN"
 "http://www.w3.org/TR/2001/REC-SVG-20010904/DTD/svg10.dtd">
<svg version="1.0" xmlns="http://www.w3.org/2000/svg"
 width="30.000000pt" height="30.000000pt" viewBox="0 0 30.000000 30.000000"
 preserveAspectRatio="xMidYMid meet">

<g transform="translate(0.000000,30.000000) scale(0.100000,-0.100000)"
fill="#000000" stroke="none">
<path d="M220 284 c-11 -13 -9 -20 18 -46 26 -27 33 -29 46 -18 21 17 20 43
-2 63 -23 21 -46 22 -62 1z"/>
<path d="M102 167 c-58 -58 -86 -94 -93 -121 -6 -21 -8 -40 -6 -43 3 -2 22 0
43 6 28 8 62 34 122 94 l82 83 -33 32 -33 32 -82 -83z"/>
</g>
</svg>
