<?xml version="1.0" standalone="no"?>
<!DOCTYPE svg PUBLIC "-//W3C//DTD SVG 20010904//EN"
 "http://www.w3.org/TR/2001/REC-SVG-20010904/DTD/svg10.dtd">
<svg version="1.0" xmlns="http://www.w3.org/2000/svg"
 width="30.000000pt" height="30.000000pt" viewBox="0 0 30.000000 30.000000"
 preserveAspectRatio="xMidYMid meet">

<g transform="translate(0.000000,30.000000) scale(0.100000,-0.100000)"
fill="#000000" stroke="none">
<path d="M120 235 c0 -58 -2 -65 -20 -65 -30 0 -24 -22 15 -60 l35 -34 35 34
c39 38 45 60 15 60 -18 0 -20 7 -20 65 l0 65 -30 0 -30 0 0 -65z"/>
<path d="M12 48 l3 -43 135 0 135 0 3 43 c3 37 1 42 -17 42 -16 0 -21 -6 -21
-25 l0 -25 -100 0 -100 0 0 25 c0 19 -5 25 -21 25 -18 0 -20 -5 -17 -42z"/>
</g>
</svg>
